<svg viewBox="0 0 377.102 297.199" xml:space="preserve" xmlns="http://www.w3.org/2000/svg"><path d="M377.102 277.823v-55.721l-14.614 14.615v55.72zM364.628 174.614l-2.14 2.14V232.475l12.493-12.493 2.121-2.12V162.14zM364.628 114.651l-2.14 2.141v55.72l14.614-14.614V102.177zM199.967 122.33c.066-.258.108-.516.157-.773a7.957 7.957 0 0 0 2.48-4.735 8 8 0 0 0-6.8-9.041l-.69-.098-38.991-5.512-39.157-34.525a8.001 8.001 0 0 0-10.582 12.002l40.954 36.11a7.998 7.998 0 0 0 4.171 1.92l36.558 5.168-1.013 2.18-35.867-5.07a10.274 10.274 0 0 1-5.37-2.472l-9.21-8.12-18.96 2.856L85.5 93.744l-14.478 9.08a7.96 7.96 0 0 0 2.759 2.64l38.311 22.018a8.002 8.002 0 0 0 5.178.975l27.431-4.131c-7.303 31.789-24.073 117.067-6.425 164.712 1.868 5.043 6.643 8.162 11.723 8.161 1.442 0 2.91-.25 4.34-.781 6.474-2.398 9.779-9.59 7.38-16.064-7.86-21.223-7.412-52.862-4.214-82.557 3.747-.367 7.759-.862 11.667-1.447 2.137 31.168 10.634 66.105 33.45 94.475a12.473 12.473 0 0 0 9.748 4.666c2.749 0 5.517-.902 7.826-2.759 5.38-4.327 6.234-12.195 1.907-17.575-45.893-57.065-22.379-151.877-22.136-152.828zM170.131 68.399c3.13 1.214 5.015 4.238 4.939 7.412l3.898 1.511c2.084-2.395 5.515-3.358 8.645-2.145s5.015 4.238 4.939 7.412l10.917 4.233c.05-10.025-6.655-19.199-16.801-21.858-6.447-1.69-12.972-.401-18.125 3.008a7.77 7.77 0 0 1 1.588.427z" fill="#1482fa" class="fill-000000"></path><path d="M202.73 92.432c.272-1.041.462-2.084.584-3.123l-11.198-4.342c-.028.08-.048.16-.079.238a7.75 7.75 0 1 1-14.452-5.603c.03-.08.07-.152.103-.229l-3.054-1.184c-.028.079-.048.159-.079.238a7.75 7.75 0 0 1-10.027 4.424 7.722 7.722 0 0 1-4.443-4.497c-.344.862-.645 1.75-.887 2.671-1.885 7.197-.061 14.491 4.283 19.864l30.353 4.29a22.403 22.403 0 0 0 8.895-12.747zm-39.318-6.06c6.36 8.036 20.316 10.12 20.316 10.12-17.996 10.297-20.316-10.12-20.316-10.12z" fill="#1482fa" class="fill-000000"></path><path d="M169.453 70.147a5.876 5.876 0 1 0-4.247 10.957 5.876 5.876 0 0 0 4.247-10.957zM186.935 76.925a5.876 5.876 0 1 0-4.247 10.958 5.876 5.876 0 0 0 4.247-10.957zM207.798 12.865l-12.225 45.492 1.874.998 14.268-44.177zM202.439 63.615l1.087 1.824 35.067-30.424-2.156-4.007zM186.623 56.817l-7.234-45.858-4.54-.293 9.652 46.106zM359.488 239.717v-2.121h-105.47v56.963h105.47v-54.842zm-91.08 42.395v-32.069h7.837c6.298 0 9.28 3.22 9.28 10.048v11.972c0 6.827-2.982 10.049-9.28 10.049h-7.837zm34.474 0-1.346-6.972h-6.827l-1.298 6.972h-4.856l6.154-32.069h6.78l6.49 32.069h-5.097zm11.299 0V254.61h-6.202v-4.567h17.405v4.567h-6.251v27.502h-4.952zm25.82 0-1.346-6.972h-6.827l-1.298 6.972h-4.856l6.154-32.069h6.779l6.49 32.069h-5.095z" fill="#1482fa" class="fill-000000"></path><path d="M332.597 270.573h5.241l-2.644-14.376zM295.478 270.573h5.24l-2.643-14.376zM273.36 277.544h2.452c3.51 0 4.76-1.827 4.76-6.827v-9.28c0-5.048-1.25-6.827-4.76-6.827h-2.451v22.934zM254.018 234.596h105.47v-56.962h-105.47v56.962zm84.589-44.516 6.49 32.069h-5.095l-1.347-6.972h-6.827l-1.298 6.972h-4.856l6.154-32.069h6.779zm-30.628 0h17.405v4.567h-6.251v27.502h-4.952v-27.502h-6.202v-4.567zm-6.49 0 6.49 32.069h-5.097l-1.346-6.972h-6.827l-1.298 6.972h-4.857l6.155-32.069h6.78zm-25.244 0c6.298 0 9.28 3.221 9.28 10.048V212.1c0 6.827-2.982 10.049-9.28 10.049h-7.837V190.08h7.837z" fill="#1482fa" class="fill-000000"></path><path d="m298.075 196.235-2.597 14.375h5.24zM335.194 196.235l-2.597 14.375h5.241zM273.36 217.582h2.452c3.51 0 4.76-1.828 4.76-6.828v-9.28c0-5.047-1.25-6.826-4.76-6.826h-2.451v22.934zM254.018 174.634h105.47V117.67h-105.47v56.963zm84.589-44.516 6.49 32.068h-5.095l-1.347-6.972h-6.827l-1.298 6.972h-4.856l6.154-32.068h6.779zm-30.628 0h17.405v4.567h-6.251v27.501h-4.952v-27.501h-6.202v-4.567zm-6.49 0 6.49 32.068h-5.097l-1.346-6.972h-6.827l-1.298 6.972h-4.857l6.155-32.068h6.78zm-25.244 0c6.298 0 9.28 3.22 9.28 10.048v11.971c0 6.828-2.982 10.05-9.28 10.05h-7.837v-32.07h7.837z" fill="#1482fa" class="fill-000000"></path><path d="m335.194 136.272-2.597 14.375h5.241zM298.075 136.272l-2.597 14.375h5.24zM273.36 157.62h2.452c3.51 0 4.76-1.828 4.76-6.828v-9.28c0-5.048-1.25-6.827-4.76-6.827h-2.451v22.934zM256.14 114.67h104.227l14.614-14.614H270.753zM49.746 110.12l-29.6-47.207-17.994-4.125L0 58.295l29.601 47.207zM112.51 6.032 89.957 20.174l-66.804 41.89 30.262 48.26 49.606-31.107c-2.428-3.776-2.184-8.853.927-12.381a10.311 10.311 0 0 1 7.73-3.489c2.507 0 4.925.914 6.808 2.573l2.385 2.104 21.899-13.732-30.262-48.26zM66.94 87.151l-6.64 4.163-17.036-27.169 6.64-4.163c5.335-3.346 9.572-2.201 13.199 3.583l6.36 10.143c3.627 5.784 2.813 10.097-2.523 13.443zM89.507 73l-4.844-5.192-5.784 3.627 2.604 6.596-4.114 2.58-11.823-30.438 5.744-3.602 22.535 23.722L89.507 73zm9.572-6.003-14.61-23.3-5.254 3.295-2.426-3.869 14.746-9.246 2.426 3.87-5.296 3.32 14.61 23.3-4.196 2.63zm17.032-18.908-5.784 3.627 2.604 6.596-4.114 2.58-11.823-30.439 5.743-3.6 22.536 23.72-4.318 2.707-4.844-5.191z" fill="#1482fa" class="fill-000000"></path><path d="m108.552 47.438 4.44-2.785-9.877-10.774zM77.104 67.157l4.44-2.784L71.667 53.6zM64.147 83.511c2.973-1.864 3.062-4.077.405-8.313l-4.93-7.861c-2.681-4.277-4.686-5.12-7.66-3.256l-2.076 1.303 12.184 19.43 2.077-1.303zM88.973 0 .67 55.37l20.146 4.62 88.303-55.372z" fill="#1482fa" class="fill-000000"></path></svg>