<svg viewBox="0 0 320.445 319.286" xml:space="preserve" xmlns="http://www.w3.org/2000/svg" enable-background="new 0 0 320.445 319.286"><path d="M201.386 121.757c-1.94-5.604-10.993-21.843-14.442-21.627-3.449.216-12.933 7.76-12.933 7.76s10.85-1.509 19.903 33.986c1.514 5.935 10.059 10.634 13.365-.144 4.677-15.251 15.84-32.699 27.897-48.399a44.29 44.29 0 0 1 9.267 27.166c0 24.575-19.922 44.496-44.496 44.496s-44.496-19.922-44.496-44.496 19.922-44.496 44.496-44.496c9.568 0 18.422 3.03 25.678 8.168 4.388-5.284 9.391-10.926 15.028-16.64l-3.33-2.794-7.22 8.604a56.02 56.02 0 0 0-4.391-2.541l3.84-10.549-13.555-4.934-3.84 10.549a55.542 55.542 0 0 0-4.998-.873V53.758h-14.425v11.234a55.898 55.898 0 0 0-4.998.873l-3.84-10.549-13.555 4.934 3.84 10.549a55.837 55.837 0 0 0-4.391 2.541l-7.22-8.604-11.05 9.272 7.218 8.602a56.11 56.11 0 0 0-3.26 3.888l-9.727-5.616-7.212 12.492 9.712 5.607a55.588 55.588 0 0 0-1.742 4.772l-11.04-1.947-2.505 14.205 11.059 1.95c-.038.842-.064 1.686-.064 2.537s.027 1.695.064 2.537l-11.059 1.95 2.505 14.205 11.04-1.947a56.045 56.045 0 0 0 1.741 4.772l-9.712 5.607 7.212 12.492 9.727-5.616a56.585 56.585 0 0 0 3.26 3.888l-7.218 8.602 11.05 9.272 7.22-8.604a56.02 56.02 0 0 0 4.391 2.541l-3.84 10.549 13.555 4.933 3.84-10.549c1.64.365 3.307.656 4.998.873v11.234h14.425v-11.234a55.898 55.898 0 0 0 4.998-.873l3.84 10.549 13.555-4.933-3.84-10.549a55.656 55.656 0 0 0 4.391-2.541l7.22 8.604 11.05-9.272-7.218-8.602a55.817 55.817 0 0 0 3.259-3.888l9.727 5.616 7.212-12.492-9.712-5.607a55.247 55.247 0 0 0 1.741-4.772l11.04 1.947 2.505-14.205-11.059-1.95c.038-.842.064-1.686.064-2.537s-.027-1.695-.064-2.537l11.059-1.95-2.505-14.205-11.04 1.947a55.375 55.375 0 0 0-1.742-4.772l9.712-5.607-7.212-12.492-9.727 5.616a56.755 56.755 0 0 0-1.922-2.369c12.696-15.45 25.149-28.142 31.048-33.599 5.748-5.317-.216-2.227-.216-2.227-7.841 5.259-14.989 10.921-21.476 16.687-33.046 29.373-48.839 61.452-50.46 56.767z" fill="#1482fa" class="fill-000000"></path><path d="M199.945 10c29.047 0 55.506 11.271 75.25 29.663l.436.406c21.418 20.166 34.814 48.762 34.814 80.432 0 60.93-49.57 110.5-110.5 110.5-23.953 0-46.147-7.664-64.267-20.664-.1 3.694-.261 7.5-.491 11.436-.007.115-.028.226-.037.34C153.862 234.068 176.094 241 199.945 241c66.55 0 120.5-53.95 120.5-120.5S266.495 0 199.945 0c-45.11 0-84.424 24.792-105.077 61.49a35.613 35.613 0 0 1 8.419 5.516C122.16 33.04 158.41 10 199.945 10zM4.263 166.51l1.891-5.598c6.391 14.883 16.939 22.698 25.618 22.697l.213-.003.162-.002c3.087-.081 5.833-1.164 7.986-2.981.307-2.352.587-4.468.833-6.303-4.243-2.319-8.178-5.02-11.519-8.066-.009.051-.019.099-.027.15-2.645-1.919-6.559-6.257-9.417-13.948-.908-2.444-1.712-5.22-2.332-8.374a7.976 7.976 0 0 0-3.987-5.458l6.315-18.695 2.131.72.962-2.842-2.133-.721 1.767-5.232 4.074 1.376c.387 1.054.994 1.938 1.792 2.557.391.303.822.55 1.301.711 3.084 1.043 6.731-1.504 8.146-5.692 1.415-4.186.061-8.423-3.025-9.464a4.408 4.408 0 0 0-.921-.195c-1.182-.133-2.401.204-3.518.916l-4.076-1.377 1.021-3.022-4.261-1.439-1.021 3.021-4.077-1.377c-.576-1.57-1.639-2.775-3.092-3.267-3.084-1.043-6.73 1.507-8.146 5.692-1.413 4.186-.061 8.423 3.025 9.466 1.453.49 3.03.176 4.441-.723l4.076 1.377-1.768 5.232-2.133-.721-.96 2.842 2.133.721-6.473 19.162a7.963 7.963 0 0 0-.985.124 8.001 8.001 0 0 0-6.308 9.392 72.533 72.533 0 0 0 1.726 6.96L0 165.069l4.263 1.441z" fill="#1482fa" class="fill-000000"></path><path d="M122.488 165.924c-3.417 3.181-7.48 5.995-11.876 8.397 1.498 11.169 4.273 32.749 6.394 54.394.073.002.146.006.219.006a8.001 8.001 0 0 0 7.979-7.533c1.328-22.704.413-41.161-2.716-55.264zM42.124 282.49l-.633 7.76-1.278 15.667c-.555 6.807 4.514 12.772 11.318 13.327 6.805.554 12.773-4.51 13.328-11.317l1.157-14.191.626-7.681c-7.746-.562-16.664-1.769-24.518-3.565zM84.935 286.055l.626 7.681 1.157 14.191c.555 6.808 6.523 11.872 13.328 11.317 6.805-.555 11.873-6.52 11.318-13.327l-1.278-15.667-.633-7.76c-7.852 1.796-16.77 3.003-24.518 3.565zM108.44 175.463c-10.789 5.441-23.163 8.471-32.652 8.471s-21.862-3.03-32.65-8.471c-2.833 21.28-9.815 76.851-9.067 102.41 11.704 4 30.184 6.25 41.719 6.25 11.533 0 30.013-2.25 41.717-6.25.748-25.558-6.234-81.13-9.067-102.41z" fill="#1482fa" class="fill-000000"></path><path d="M29.94 129.59c-.537.664-1.278 2.116-.2 4.377 1.023 2.145 3.754 4.974 6.987 7.536-3.932 4.77-6.914 11.24-8.758 20 11.25 12.699 33.57 20.133 47.82 20.133s36.572-7.434 47.822-20.133c-1.844-8.76-4.826-15.23-8.758-20 3.233-2.562 5.964-5.391 6.987-7.536 1.078-2.261.337-3.713-.201-4.377-.403-.499-.942-1.088-1.625-1.833-3.832-4.188-11.807-12.904-12.416-24.727-1.201-23.304-11.889-35.308-31.851-35.679-19.877.372-30.564 12.376-31.765 35.679-.609 11.822-8.584 20.538-12.416 24.727-.683.745-1.222 1.334-1.626 1.833zm60.909-41.51c.558.39 1.042.859 1.432 1.414a23.016 23.016 0 0 0-1.432-1.414zm-31.552 1.416a5.717 5.717 0 0 1 1.437-1.419c-.501.451-.979.926-1.437 1.419zm.325 34.724c.142-1.056.17-2.295.133-3.645a22.425 22.425 0 0 0 16.034 6.72 22.429 22.429 0 0 0 16.034-6.719c-.037 1.349-.01 2.588.132 3.644.256 1.899.528 3.788.828 5.627a62.436 62.436 0 0 0-1.622-.254c-1.478 1.788-3.46 3.296-5.794 4.413l6.672 22.993-10 2.875-3.195-23.963c-.995.13-2.012.213-3.055.213s-2.059-.083-3.055-.213l-3.195 23.963-10-2.875 6.672-22.993c-2.334-1.118-4.316-2.625-5.794-4.414-.545.079-1.087.163-1.622.254.299-1.838.572-3.727.827-5.626zm-13.343-21.072c.745-14.462 5.322-32.436 28.36-33.448v11.007h2.301V69.7c23.038 1.012 27.615 18.986 28.36 33.448.758 14.702 11.974 24.706 14.551 27.889.594.734.043 2.059-1.184 3.62-2.368-2.335-9.908-10.314-13.288-20.318l-2.18.736c3.625 10.728 11.524 18.965 13.938 21.309-4.936 5.031-14.546 11.09-16.839 8.9-3.335-3.183-5.002-13.49-6.063-21.371-1.061-7.882 4.547-27.737.303-35.164s-18.749-4.092-18.749-4.092-14.505-3.335-18.749 4.092 1.364 27.283.303 35.164c-1.061 7.882-2.728 18.188-6.063 21.371-2.294 2.19-11.903-3.869-16.839-8.9 2.414-2.344 10.313-10.581 13.937-21.309l-2.18-.736c-3.379 10.005-10.919 17.984-13.287 20.318-1.227-1.561-1.778-2.886-1.184-3.62 2.578-3.183 13.794-13.186 14.552-27.889z" fill="#1482fa" class="fill-000000"></path></svg>