<svg viewBox="0 0 149.256 257.358" xml:space="preserve" xmlns="http://www.w3.org/2000/svg" enable-background="new 0 0 149.256 257.358"><path d="M111.642 37.994H73.099a22.552 22.552 0 0 0-.536 4.874c0 12.427 10.072 22.5 22.5 22.5 12.254 0 22.214-9.798 22.487-21.987a6.557 6.557 0 0 1-5.908-5.387zM95.063 58.791c-5.931 0-11.126-3.157-14.035-7.868h28.07c-2.909 4.711-8.104 7.868-14.035 7.868zM122.013 31.628a6.537 6.537 0 0 1 2.623 5.23c0 .393-.041.775-.107 1.149 8.033.794 16.226-2.762 20.991-9.963 5.933-8.967 4.599-20.623-2.58-28.044l-20.927 31.628z" fill="#1482fa" class="fill-000000"></path><circle cx="118.086" cy="36.858" r="4.25" fill="#1482fa" class="fill-000000"></circle><path d="M9.431 56.286c21.57 19.903 46.529 27.13 58.587 29.595V139.4l-8.53 104.59c-.555 6.807 4.514 12.772 11.318 13.327 6.805.554 12.773-4.51 13.328-11.317l7.429-91.084h7.002L105.993 246c.555 6.808 6.523 11.872 13.328 11.317 6.805-.555 11.873-6.52 11.318-13.327l-8.53-104.591V95.161c4.47 9.298 8.452 28.029 6.396 63.166a8 8 0 0 0 7.994 8.467 8 8 0 0 0 7.979-7.533c2.472-42.247-2.813-69.811-15.706-81.924-5.597-5.259-11.066-6.174-13.887-6.245-.168-.011-.334-.025-.505-.025H76.26c-4.254-.579-31.508-4.998-54.422-25.158-1.371 1.508-2.523 3.177-3.094 4.92-1.463 4.47-5.527 6.032-9.313 5.457zM2.125 38.017a7.999 7.999 0 0 0-.643 10.068 8.49 8.49 0 0 1 .442-2.76c.713-2.179.622-4.798.201-7.308z" fill="#1482fa" class="fill-000000"></path><path d="M4.11 46.041c-2.457 7.509 9.991 11.582 12.448 4.073 1.405-4.293 5.59-8.026 8.923-10.442 4.695-1.954 8.551-5.854 10.257-11.068 3.106-9.494-2.071-19.711-11.567-22.818C14.676 2.68 4.459 7.859 1.353 17.354-.353 22.568.452 27.993 3.084 32.345c1.261 3.918 2.43 9.402 1.026 13.696zm.8-27.521c2.461-7.521 10.579-11.638 18.099-9.178 7.517 2.459 11.632 10.579 9.172 18.1a14.34 14.34 0 0 1-8.14 8.774l-.403.167-.358.258c-1.864 1.354-3.477 2.731-4.872 4.124l-10.26-3.357c-.302-1.951-.792-4.018-1.499-6.213l-.134-.415-.226-.373A14.332 14.332 0 0 1 4.91 18.52z" fill="#1482fa" class="fill-000000"></path><path d="M9.579 20.907a.996.996 0 0 0 1.261-.639c1.447-4.421 6.222-6.84 10.639-5.396a.995.995 0 0 0 1.261-.639.999.999 0 0 0-.639-1.261c-5.469-1.791-11.372 1.205-13.161 6.674a1 1 0 0 0 .639 1.261zM92.757 30.273c.661 1.34.964 2.171.967 2.179l1.881-.678c-.014-.038-.338-.933-1.054-2.386l-1.794.885zM64.148 7.494c1.54.37 3.063.821 4.527 1.341l.669-1.885a46.983 46.983 0 0 0-4.729-1.4l-.467 1.944zM54.783 6.182c1.6.077 3.187.224 4.717.437l.275-1.981a55.308 55.308 0 0 0-4.896-.454l-.096 1.998zM80.988 15.684c1.218.976 2.4 2.036 3.515 3.15l1.414-1.414a45.22 45.22 0 0 0-3.678-3.297l-1.251 1.561zM73.028 10.654c1.413.685 2.8 1.456 4.122 2.291l1.068-1.69a44.07 44.07 0 0 0-4.318-2.4l-.872 1.799zM87.659 22.35a44.64 44.64 0 0 1 2.769 3.83l1.681-1.084a46.702 46.702 0 0 0-2.893-4.001l-1.557 1.255zM45.289 6.479a65.981 65.981 0 0 1 4.746-.331l-.065-1.999a68.278 68.278 0 0 0-4.891.34l.21 1.99zM40.541 7.139l-.338-1.972c-.818.141-1.647.296-2.488.466l.397 1.96c.822-.166 1.63-.318 2.429-.454z" fill="#1482fa" class="fill-000000"></path></svg>