<svg viewBox="0 0 252.07 248.773" xml:space="preserve" xmlns="http://www.w3.org/2000/svg"><path d="m40.467 176.858-9.946 59.444c-.911 5.448 2.766 10.602 8.213 11.514.559.093 1.113.139 1.662.139 4.797 0 9.033-3.464 9.85-8.352l10.532-62.941c-9.267.695-15.777.603-20.311.196zM71.36 175.644v63.129c0 5.523 4.476 10 10 10 5.519 0 10-4.477 10-10v-66.147c-4.917.968-10.841 1.918-17.997 2.785-.684.083-1.34.157-2.004.233zM133.284 32.114l-12.826 6.738a6.496 6.496 0 0 0-6.96 1.167l-3.853 3.523a6.498 6.498 0 0 0-1.901 3.146l-6.995 26.627-8.33-10.193-.214-.263a6.472 6.472 0 0 0-1.677-1.447l.02-.063s-4.487-2.493-12.617-3.817a23.675 23.675 0 0 1-14.614 5.207A23.658 23.658 0 0 1 50.158 58.9a66.227 66.227 0 0 0-4.169 1.19c.043.983.103 1.997.163 3.021.418 7.13.892 15.212-3.519 20.929-1.166 1.512-2.361 2.736-3.552 3.732 2.3 5.462 4.209 11.175 4.596 15.759l2.164.922c4.464 1.905 6.547 7.084 4.644 11.548a8.79 8.79 0 0 1-8.098 5.35c-.161 0-.32-.015-.481-.024l-9.481 50.734s6.576 4.491 40.577.37 39.314-10.052 39.314-10.052L87.84 108.433l-.034.004a65.418 65.418 0 0 1-2.558-8.723c-1.326-5.998-.128-15.166 1.461-23.037l1.89 2.313 10.161 12.435a6.502 6.502 0 0 0 11.32-2.462l9.751-37.12 2.44-2.23a6.502 6.502 0 0 0 1.203-8.117l11.552-6.068-1.741-3.314z" fill="#1482fa" class="fill-000000"></path><path d="M42.387 119.052a6.503 6.503 0 0 0 2.552-12.481L18.59 95.336l5.078-4.422c-1.649-.712-2.957-1.863-2.874-3.498.059-1.151.918-2.544 3.147-2.683 1.692-.106 2.917-.684 3.852-1.82 1.415-1.718 2.839-5.625 1.857-14.449-.017.015-.035.027-.052.041L2.231 92.346a6.5 6.5 0 0 0 1.72 10.88l35.89 15.303a6.478 6.478 0 0 0 2.546.523zM164.226 18.648c1.192-1.103-.045-.462-.045-.462-3.712 2.49-6.68 5.414-8.961 8.038a9.586 9.586 0 0 0-5.96-2.077c-5.317 0-9.642 4.325-9.642 9.642s4.325 9.642 9.642 9.642 9.642-4.325 9.642-9.642a9.592 9.592 0 0 0-2.49-6.444c3.067-3.965 6.377-7.368 7.814-8.697zm-7.324 15.141c0 4.214-3.428 7.642-7.642 7.642s-7.642-3.428-7.642-7.642 3.428-7.642 7.642-7.642c1.761 0 3.38.605 4.674 1.61-2.953 3.635-4.453 6.305-4.674 5.665-.403-1.163-2.28-4.53-2.996-4.486-.715.045-2.683 1.61-2.683 1.61s2.251-.314 4.129 7.05c.314 1.23 2.086 2.205 2.772-.03.828-2.702 2.639-5.734 4.706-8.59a7.604 7.604 0 0 1 1.714 4.813zM149.26 19.284c5.317 0 9.642-4.325 9.642-9.642S154.577 0 149.26 0s-9.642 4.325-9.642 9.642 4.325 9.642 9.642 9.642zm0-17.284c4.214 0 7.642 3.428 7.642 7.642s-3.428 7.642-7.642 7.642-7.642-3.428-7.642-7.642S145.046 2 149.26 2zM149.26 48.294c-5.317 0-9.642 4.325-9.642 9.642s4.325 9.642 9.642 9.642 9.642-4.326 9.642-9.642-4.325-9.642-9.642-9.642zm0 17.284c-4.214 0-7.642-3.428-7.642-7.642s3.428-7.643 7.642-7.643 7.642 3.429 7.642 7.643-3.428 7.642-7.642 7.642zM149.26 72.44c-5.317 0-9.642 4.326-9.642 9.642s4.325 9.643 9.642 9.643 9.642-4.326 9.642-9.642-4.325-9.643-9.642-9.643zm0 17.285c-4.214 0-7.642-3.428-7.642-7.642s3.428-7.643 7.642-7.643 7.642 3.429 7.642 7.642c0 4.215-3.428 7.643-7.642 7.643zM221.238 31.67l-.353 1.568c.708.076 2.398.236 3.99.236 1.123 0 2.198-.08 2.842-.327.522-.2 3.023-.158 5.356.09l.353-1.567c-1.21-.13-5.28-.506-6.83.09-.522.202-3.026.159-5.358-.09zM202.78 33.247h6.094c.384 0 .843-.053 1.425-.12 1.213-.14 3.051-.354 4.143.032l1.052-1.41c-1.77-.627-4.06-.362-5.576-.187-.42.048-.853.099-1.044.099h-6.094v1.586zM166.215 33.247h5.995c.59.07 2.19.24 3.783.24 1.066 0 2.128-.076 2.883-.31.966-.299 3.751-.146 5.42.058l6.296.012.315-.03c1.872-.368 4.402-.522 5.038-.156.175.1.376.19.598.266l1.019-1.422a.804.804 0 0 1-.138-.06c-1.824-1.049-5.85-.398-6.99-.184h-5.836c-.986-.117-4.788-.513-6.667.07-.964.299-3.748.146-5.42-.058l-6.296-.012v1.586zM227.834 9.976c2.14-.502 3.055-.332 4.02-.152.513.095 1.044.194 1.703.194h6.095c1.01 0 2.007-.205 2.974-.404 1.226-.252 2.386-.49 3.174-.219 1.601.552 3.94.637 5.22.637.458 0 .78-.011.884-.015l-.128-1.584c-.903.034-3.565.019-4.946-.457-1.602-.552-3.335-.196-4.862.118-.845.174-1.643.338-2.316.338h-6.095c-.353 0-.685-.062-1.104-.14-1.14-.212-2.558-.476-5.41.193l.262.776.355.755.174-.04zM215.71 8.49c-2.007-.563-3.596-.281-4.753-.075-.51.09-1.039.184-1.222.114-1.582-.597-5.626-.218-6.827-.088l.358 1.567c2.057-.223 4.765-.314 5.362-.088.982.372 2.004.19 2.903.031.986-.176 2.007-.357 3.31.008 1.128.317 2.065.42 2.872.42.822 0 1.507-.107 2.118-.202.545-.086 1.017-.159 1.538-.159V8.431c-.778 0-1.452.106-2.046.198-1.123.175-2.007.312-3.614-.139zM197.308 10.018V8.431l-.399.003c-.176.009-4.367.223-6.417.615l.616 1.529c1.83-.35 5.928-.56 5.885-.56h.315zM176.846 10.508c.7-.252 1.362-.49 1.865-.49h6.094V8.431h-6.094c-1.067 0-2.015.341-2.93.671-1.118.402-1.838.634-2.46.455-2.1-.605-6.43-1.095-6.614-1.115l-.37 1.566c.042.004 4.245.48 6.096 1.013.455.131.9.185 1.332.185 1.142 0 2.191-.377 3.082-.698zM209.517 56.568c1.601.551 3.94.636 5.22.636.458 0 .78-.011.884-.015l-.128-1.584c-.904.034-3.566.019-4.946-.456-1.602-.553-3.334-.197-4.862.117-.845.173-1.643.337-2.316.337v1.587c1.01 0 2.008-.205 2.973-.404 1.228-.252 2.386-.49 3.175-.218zM190.81 55.646l.742 1.502c2.14-.502 3.054-.332 4.019-.152.514.095 1.044.194 1.703.194v-1.587c-.353 0-.685-.061-1.104-.14-1.139-.211-2.558-.474-5.36.183zM233.415 57.19l.179-.01c2.057-.223 4.765-.314 5.362-.088.982.372 2.004.19 2.903.03.986-.175 2.007-.356 3.31.01 2.278.64 3.781.404 4.99.217.626-.098 1.204-.179 1.762-.154l.149-1.583a8.259 8.259 0 0 0-.373-.009c-.778 0-1.452.105-2.047.198-1.122.175-2.006.312-3.613-.139-2.006-.563-3.595-.282-4.752-.075-.51.09-1.039.183-1.222.114-1.545-.583-5.436-.236-6.737-.098l-6.089.002c-.176.01-4.367.224-6.417.616l.616 1.529c1.83-.35 5.928-.56 5.885-.56h6.094zM165.642 57.18c.042.004 4.245.48 6.096 1.013.455.131.9.185 1.332.185 1.142 0 2.191-.377 3.081-.698.7-.252 1.362-.49 1.864-.49h5.91l.129.029.7-1.512-.45-.104h-6.288c-1.067 0-2.015.341-2.93.671-1.118.402-1.838.634-2.46.455-2.1-.605-6.43-1.095-6.614-1.116l-.37 1.567zM246.18 80.912l.31-1.572c-1.607-.15-5.491-.442-6.821.097-.514.167-3.023.122-5.367-.097l-.11-.01-.11.004c-.903.034-3.566.019-4.945-.456l-1.03 1.419c2.035.7 5.26.647 5.991.625.924.085 2.49.205 3.922.205 1.149 0 2.212-.078 2.791-.313.516-.167 3.025-.12 5.368.098zM207.027 81.294c.79 0 1.776-.104 3.114-.417 2.14-.502 3.055-.332 4.02-.152.513.096 1.044.194 1.703.194h6.094v-1.586h-6.094c-.353 0-.685-.062-1.104-.14-1.14-.212-2.558-.475-5.361.182-2.067.485-2.861.338-3.782.168-.534-.099-1.14-.21-1.942-.21v1.586c.498 0 .892.073 1.346.157.571.105 1.182.218 2.006.218zM173.415 81.479c1.83-.35 5.928-.56 5.885-.56h6.094l.179-.01c2.057-.223 4.765-.314 5.362-.088.982.372 2.004.19 2.903.031.986-.175 2.007-.357 3.311.009l.247.067.81-1.486-.19-.05c-2.006-.564-3.595-.282-4.752-.076-.51.09-1.04.184-1.222.114-1.545-.583-5.436-.235-6.737-.098l-6.09.003c-.176.008-4.366.223-6.416.615-.88.167-2.848-.033-5.026-.51l-.697 1.512c1.217.267 3.228.641 4.924.641.51 0 .992-.033 1.415-.114z" fill="#1482fa" class="fill-000000"></path><path d="M31.777 66.864c2.179 16.63-3.16 19.881-7.694 20.164s7.404 7.694 16.73-4.392c6.052-7.844 1.609-21.762 3.178-29.531a23.689 23.689 0 0 1-4.158-9.142c-5.433 3.389-9.767 9.846-8.056 22.901z" fill="#1482fa" class="fill-000000"></path><circle cx="63.099" cy="38.94" r="21.5" fill="#1482fa" class="fill-000000"></circle></svg>