<?xml version="1.0" encoding="utf-8"?>
<!-- Generator: Adobe Illustrator 27.8.1, SVG Export Plug-In . SVG Version: 6.00 Build 0)  -->
<svg version="1.1" id="icons" xmlns="http://www.w3.org/2000/svg" xmlns:xlink="http://www.w3.org/1999/xlink" x="0px" y="0px"
	 viewBox="0 0 192 192" style="enable-background:new 0 0 192 192;" xml:space="preserve">
<style type="text/css">
	.st0{fill:none;stroke:#1482FA;stroke-width:8;stroke-linecap:round;stroke-linejoin:round;stroke-miterlimit:10;}
	.st1{fill:none;stroke:#0B41CD;stroke-width:8;stroke-linecap:round;stroke-linejoin:round;stroke-miterlimit:10;}
</style>
<g>
	<polyline class="st0" points="78,62 63,78 56,70 	"/>
	<g>
		<g>
			<path class="st1" d="M153,49h-20c-6.6,0-12-5.4-12-12V14"/>
			<path class="st1" d="M156,51.9c0-1.9-0.7-3.8-2-5.2l-27.7-31.9c-1.5-1.7-3.7-2.8-6-2.8H48c-6.6,0-12,5.4-12,12v144
				c0,6.6,5.4,12,12,12h96c6.6,0,12-5.4,12-12V51.9z"/>
		</g>
	</g>
	<line class="st0" x1="92" y1="71" x2="132" y2="71"/>
	<polyline class="st0" points="78,96 63,112 56,104 	"/>
	<line class="st0" x1="92" y1="105" x2="116" y2="105"/>
	<polyline class="st0" points="78,130 63,146 56,138 	"/>
	<line class="st0" x1="92" y1="139" x2="124" y2="139"/>
</g>
</svg>
