<svg id="Layer_1" data-name="Layer 1" xmlns="http://www.w3.org/2000/svg" viewBox="0 0 192 192"><defs><style>.cls-1,.cls-2,.cls-3{fill:none;}.cls-1{stroke:#1482fa;}.cls-1,.cls-2{stroke-linecap:round;stroke-linejoin:round;stroke-width:8px;}.cls-2{stroke:#0b41cd;}</style></defs><path class="cls-1" d="M153.4,48.84H133.26a12.07,12.07,0,0,1-12.09-12V13.72"/><path class="cls-2" d="M156.42,51.71a8.07,8.07,0,0,0-2-5.27l-27.84-32a8.07,8.07,0,0,0-6-2.76H47.66A12.06,12.06,0,0,0,35.58,23.75h0V168.25A12.07,12.07,0,0,0,47.66,180.3h96.68a12.07,12.07,0,0,0,12.08-12.05Z"/><polyline class="cls-1" points="139.39 67.49 128.05 80.53 128.05 80.53 122.01 73.61"/><polyline class="cls-1" points="139.39 94.09 128.05 107.13 128.05 107.13 122.01 100.22"/><line class="cls-1" x1="52.61" y1="73.99" x2="104.11" y2="73.99"/><line class="cls-1" x1="52.61" y1="100.59" x2="104.11" y2="100.59"/><line class="cls-1" x1="52.61" y1="127.19" x2="104.11" y2="127.19"/><line class="cls-1" x1="52.61" y1="153.8" x2="104.11" y2="153.8"/><polygon class="cls-1" points="123.97 147.09 137.44 147.09 137.44 160.51 123.97 160.51 123.97 147.09 123.97 147.09"/><polygon class="cls-1" points="123.97 120.49 137.44 120.49 137.44 133.91 123.97 133.91 123.97 120.49 123.97 120.49"/><rect class="cls-3" width="192" height="192"/></svg>