<svg id="Layer_1" data-name="Layer 1" xmlns="http://www.w3.org/2000/svg" viewBox="0 0 192 192"><defs><style>.cls-1,.cls-2,.cls-3{fill:none;}.cls-1{stroke:#1482fa;}.cls-1,.cls-2{stroke-linecap:round;stroke-linejoin:round;stroke-width:8px;}.cls-2{stroke:#0b41cd;}</style></defs><path class="cls-1" d="M140.61,48.84H120.47a12.06,12.06,0,0,1-12.08-12V13.72"/><path class="cls-2" d="M143.63,67.27V51.71a8,8,0,0,0-2-5.27l-27.83-32a8.11,8.11,0,0,0-6.05-2.76H34.88A12.06,12.06,0,0,0,22.8,23.75h0V168.25A12.07,12.07,0,0,0,34.88,180.3h96.67a12.07,12.07,0,0,0,12.08-12.05V94"/><path class="cls-1" d="M165.35,58.9h0a9.12,9.12,0,0,1,0,12.91l-2.85,2.85h0L149.56,61.75h0l2.86-2.85a9.16,9.16,0,0,1,12.93,0Z"/><polyline class="cls-1" points="163.51 76.67 169.21 82.35 138.71 112.79"/><polygon class="cls-2" points="149.57 61.75 73.94 137.23 69.22 154.86 86.89 150.12 162.51 74.67 149.57 61.75 149.57 61.75 149.57 61.75"/><line class="cls-2" x1="73.94" y1="137.23" x2="86.89" y2="150.12"/><rect class="cls-3" width="192" height="192"/></svg>