<svg id="Layer_1" data-name="Layer 1" xmlns="http://www.w3.org/2000/svg" viewBox="0 0 192 192"><defs><style>.cls-1,.cls-2,.cls-3{fill:none;}.cls-1{stroke:#0b41cd;}.cls-1,.cls-2{stroke-linecap:round;stroke-linejoin:round;stroke-width:8px;}.cls-2{stroke:#1482fa;}</style></defs><path class="cls-1" d="M65.33,22.58H51.15a10.93,10.93,0,0,0-1.15.06A11.2,11.2,0,0,0,39.93,33.76h0V167.85h0A11.19,11.19,0,0,0,50,179a10.93,10.93,0,0,0,1.15.06h89.7a11.19,11.19,0,0,0,11.22-11.17V33.76a11.2,11.2,0,0,0-11.22-11.18H126.67"/><path class="cls-1" d="M120.13,13H71.87c-.21,0-.42,0-.62,0a6,6,0,0,0-5.42,6h0v7.19h0a6,6,0,0,0,5.42,6c.2,0,.41,0,.62,0h48.26a6,6,0,0,0,6-6V19A6,6,0,0,0,120.13,13Z"/><line class="cls-2" x1="54.79" y1="55.9" x2="137.21" y2="55.9"/><line class="cls-2" x1="54.79" y1="71.66" x2="137.21" y2="71.66"/><line class="cls-2" x1="54.79" y1="87.42" x2="137.21" y2="87.42"/><line class="cls-2" x1="54.79" y1="103.18" x2="137.21" y2="103.18"/><path class="cls-2" d="M137.21,123.27l-32,36.82h0l-17-19.59"/><rect class="cls-3" width="192" height="192"/></svg>