<svg version="1.1" viewBox="0.0 0.0 156.0 22.0" fill="none" stroke="none" stroke-linecap="square" stroke-miterlimit="10" xmlns:xlink="http://www.w3.org/1999/xlink" xmlns="http://www.w3.org/2000/svg"><clipPath id="p.0"><path d="m0 0l156.0 0l0 22.0l-156.0 0l0 -22.0z" clip-rule="nonzero"/></clipPath><g clip-path="url(#p.0)"><path fill="#000000" fill-opacity="0.0" d="m0 0l156.0 0l0 22.0l-156.0 0z" fill-rule="evenodd"/><path fill="#000000" fill-opacity="0.0" d="m0 -0.30708662l156.0 0l0 22.614174l-156.0 0z" fill-rule="evenodd"/><path fill="#0b41cd" d="m3.171875 6.3785367q-0.359375 0 -0.625 -0.265625q-0.265625 -0.265625 -0.265625 -0.625q0 -0.375 0.25 -0.625q0.265625 -0.265625 0.640625 -0.265625q0.375 0 0.625 0.265625q0.265625 0.25 0.265625 0.625q0 0.375 -0.265625 0.640625q-0.25 0.25 -0.625 0.25zm-1.640625 11.234375l-1.015625 0l1.65625 -9.25l1.0 0l-1.640625 9.25zm2.8501892 0l2.3125 -13.0625l3.046875 0q1.359375 0 2.421875 0.59375q1.0625 0.578125 1.640625 1.65625q0.59375 1.078125 0.59375 2.4687495q0 0.515625 -0.125 1.296875l-0.25 1.296875q-0.5 2.75 -2.1875 4.25q-1.6875 1.5 -4.328125 1.5l-3.125 0zm3.125 -1.0q2.1875 0 3.609375 -1.265625q1.421875 -1.265625 1.875 -3.734375l0.1875 -1.046875q0.109375 -0.625 0.109375 -1.203125q0 -1.7656245 -1.015625 -2.7812495q-1.015625 -1.015625 -2.828125 -1.015625l-1.84375 0l-1.953125 11.046875l1.859375 0zm11.244125 1.21875q-0.921875 0 -1.65625 -0.421875q-0.734375 -0.4375 -1.15625 -1.234375q-0.421875 -0.796875 -0.421875 -1.890625q0 -0.421875 0.09375 -1.015625l0.125 -0.640625q0.390625 -2.25 1.546875 -3.375q1.171875 -1.125 2.921875 -1.125q1.03125 0 1.75 0.46875q0.734375 0.46875 1.046875 1.140625l0.25 -1.375l1.0 0l-1.640625 9.25l-1.0 0l0.234375 -1.3125q-0.578125 0.765625 -1.3125 1.15625q-0.71875 0.375 -1.78125 0.375zm0.171875 -0.96875q1.3125 0 2.25 -0.953125q0.953125 -0.953125 1.25 -2.640625l0.109375 -0.640625q0.078125 -0.375 0.078125 -0.796875q0 -1.25 -0.671875 -1.984375q-0.671875 -0.734375 -1.71875 -0.734375q-1.34375 0 -2.25 0.921875q-0.90625 0.921875 -1.203125 2.65625l-0.109375 0.65625q-0.078125 0.390625 -0.078125 0.8125q0 1.234375 0.65625 1.96875q0.65625 0.734375 1.6875 0.734375zm9.759308 -7.578125l-1.109375 6.25q-0.03125 0.234375 -0.03125 0.3125q0 0.484375 0.28125 0.78125q0.296875 0.28125 0.78125 0.28125q0.671875 0 1.34375 -0.34375l-0.1875 1.015625q-0.65625 0.25 -1.5 0.25q-0.765625 0 -1.265625 -0.515625q-0.484375 -0.53125 -0.484375 -1.375q0 -0.265625 0.0625 -0.546875l1.078125 -6.109375l-1.75 0l0.15625 -0.921875l1.765625 0l0.296875 -1.7031245l1.109375 -0.5625l-0.390625 2.2656245l2.546875 0l-0.171875 0.921875l-2.53125 0zm6.1690063 8.546875q-0.921875 0 -1.65625 -0.421875q-0.734375 -0.4375 -1.15625 -1.234375q-0.421875 -0.796875 -0.421875 -1.890625q0 -0.421875 0.09375 -1.015625l0.125 -0.640625q0.390625 -2.25 1.546875 -3.375q1.171875 -1.125 2.921875 -1.125q1.03125 0 1.75 0.46875q0.734375 0.46875 1.046875 1.140625l0.25 -1.375l1.0 0l-1.640625 9.25l-1.0 0l0.234375 -1.3125q-0.578125 0.765625 -1.3125 1.15625q-0.71875 0.375 -1.78125 0.375zm0.171875 -0.96875q1.3125 0 2.25 -0.953125q0.953125 -0.953125 1.25 -2.640625l0.109375 -0.640625q0.078125 -0.375 0.078125 -0.796875q0 -1.25 -0.671875 -1.984375q-0.671875 -0.734375 -1.71875 -0.734375q-1.34375 0 -2.25 0.921875q-0.90625 0.921875 -1.203125 2.65625l-0.109375 0.65625q-0.078125 0.390625 -0.078125 0.8125q0 1.234375 0.65625 1.96875q0.65625 0.734375 1.6875 0.734375z" fill-rule="nonzero"/><path fill="#544f4f" d="m47.219437 17.878536q-1.59375 0 -2.8125 -0.796875q-1.21875 -0.796875 -1.890625 -2.21875q-0.671875 -1.421875 -0.671875 -3.28125l0 -1.0q0 -1.84375 0.671875 -3.2656245q0.671875 -1.4375 1.890625 -2.234375q1.21875 -0.796875 2.8125 -0.796875q1.578125 0 2.71875 0.8125q1.15625 0.796875 1.765625 2.21875l-0.859375 0.5q-0.53125 -1.1875 -1.453125 -1.859375q-0.90625 -0.671875 -2.171875 -0.671875q-1.28125 0 -2.265625 0.671875q-0.96875 0.671875 -1.5 1.875q-0.53125 1.1874995 -0.53125 2.6874995l0 1.125q0 1.515625 0.53125 2.703125q0.53125 1.1875 1.5 1.859375q0.984375 0.671875 2.265625 0.671875q2.46875 0 3.625 -2.546875l0.875 0.484375q-0.65625 1.453125 -1.796875 2.265625q-1.125 0.796875 -2.703125 0.796875zm10.247818 -0.046875q-1.1875 0 -2.125 -0.578125q-0.921875 -0.59375 -1.453125 -1.625q-0.53125 -1.03125 -0.53125 -2.359375l0 -0.5625q0 -1.328125 0.53125 -2.359375q0.53125 -1.03125 1.453125 -1.625q0.9375 -0.59375 2.125 -0.59375q1.1875 0 2.109375 0.59375q0.9375 0.59375 1.46875 1.625q0.53125 1.03125 0.53125 2.359375l0 0.5625q0 1.328125 -0.53125 2.359375q-0.53125 1.03125 -1.46875 1.625q-0.921875 0.578125 -2.109375 0.578125zm0 -0.96875q1.390625 0 2.234375 -0.984375q0.84375 -0.984375 0.84375 -2.59375l0 -0.59375q0 -1.609375 -0.84375 -2.59375q-0.84375 -0.984375 -2.234375 -0.984375q-1.390625 0 -2.234375 0.984375q-0.828125 0.984375 -0.828125 2.59375l0 0.59375q0 1.609375 0.828125 2.59375q0.84375 0.984375 2.234375 0.984375zm6.3187866 0.75l0 -9.25l1.0 0l0 1.15625q0.3125 -0.59375 0.984375 -0.984375q0.671875 -0.40625 1.578125 -0.40625q1.4375 0 2.265625 0.90625q0.84375 0.90625 0.84375 2.40625l0 6.171875l-1.0 0l0 -6.0q0 -1.1875 -0.640625 -1.859375q-0.640625 -0.6875 -1.6875 -0.6875q-1.0625 0 -1.703125 0.703125q-0.640625 0.703125 -0.640625 1.859375l0 5.984375l-1.0 0zm12.10022 0.265625q-1.203125 0 -2.0625 -0.640625q-0.84375 -0.65625 -1.15625 -1.671875l0.9375 -0.453125q0.25 0.84375 0.84375 1.34375q0.609375 0.484375 1.4375 0.484375q0.859375 0 1.421875 -0.453125q0.578125 -0.453125 0.578125 -1.203125l0 -0.015625q0 -0.75 -0.5 -1.15625q-0.484375 -0.421875 -1.640625 -0.75q-1.40625 -0.421875 -2.09375 -1.078125q-0.671875 -0.65625 -0.671875 -1.703125q0 -1.109375 0.8125 -1.75q0.828125 -0.65625 2.03125 -0.65625q1.046875 0 1.796875 0.515625q0.75 0.515625 1.078125 1.40625l-0.84375 0.421875q-0.296875 -0.703125 -0.828125 -1.078125q-0.53125 -0.375 -1.203125 -0.375q-0.828125 0 -1.359375 0.40625q-0.515625 0.390625 -0.515625 1.0625q0 0.671875 0.515625 1.125q0.53125 0.453125 1.640625 0.765625q1.46875 0.453125 2.125 1.078125q0.671875 0.609375 0.671875 1.765625l0 0.015625q0 1.140625 -0.859375 1.875q-0.859375 0.71875 -2.15625 0.71875zm8.434036 -0.046875q-1.4375 0 -2.28125 -0.90625q-0.828125 -0.921875 -0.828125 -2.40625l0 -6.15625l1.0 0l0 6.0q0 1.171875 0.640625 1.859375q0.65625 0.6875 1.703125 0.6875q1.0625 0 1.6875 -0.703125q0.640625 -0.703125 0.640625 -1.859375l0 -5.984375l1.0 0l0 9.25l-1.0 0l0 -1.15625q-0.296875 0.59375 -0.96875 0.984375q-0.671875 0.390625 -1.59375 0.390625zm6.2560577 -0.21875l0 -9.25l1.0 0l0 1.046875q0.234375 -0.53125 0.828125 -0.90625q0.609375 -0.375 1.421875 -0.375q0.8125 0 1.421875 0.40625q0.609375 0.40625 0.890625 1.03125q0.34375 -0.640625 1.0 -1.03125q0.671875 -0.40625 1.53125 -0.40625q1.296875 0 2.0 0.828125q0.71875 0.828125 0.71875 2.140625l0 6.515625l-1.015625 0l0 -6.375q0 -1.015625 -0.53125 -1.59375q-0.53125 -0.578125 -1.40625 -0.578125q-0.875 0 -1.421875 0.609375q-0.53125 0.609375 -0.53125 1.578125l0 6.359375l-1.015625 0l0 -6.375q0 -1.015625 -0.53125 -1.59375q-0.53125 -0.578125 -1.40625 -0.578125q-0.875 0 -1.421875 0.609375q-0.53125 0.609375 -0.53125 1.578125l0 6.359375l-1.0 0zm13.507126 3.765625l0 -13.015625l1.0 0l0 1.453125q0.40625 -0.75 1.171875 -1.21875q0.78125 -0.46875 1.78125 -0.46875q1.078125 0 1.9375 0.5625q0.875 0.5625 1.375 1.609375q0.5 1.03125 0.5 2.40625l0 0.5625q0 1.375 -0.484375 2.421875q-0.484375 1.03125 -1.359375 1.59375q-0.859375 0.546875 -1.953125 0.546875q-1.046875 0 -1.796875 -0.40625q-0.75 -0.421875 -1.171875 -1.125l0 5.078125l-1.0 0zm3.828125 -4.515625q0.828125 0 1.484375 -0.4375q0.65625 -0.4375 1.03125 -1.25q0.375 -0.8125 0.375 -1.890625l0 -0.59375q0 -1.078125 -0.375 -1.890625q-0.375 -0.8125 -1.03125 -1.25q-0.65625 -0.4375 -1.484375 -0.4375q-1.265625 0 -2.078125 0.96875q-0.796875 0.96875 -0.796875 2.609375l0 0.59375q0 1.640625 0.796875 2.609375q0.8125 0.96875 2.078125 0.96875zm10.161148 -7.578125l-2.53125 0l0 6.25q0 0.65625 0.296875 1.015625q0.3125 0.359375 0.9375 0.359375q0.625 0 1.296875 -0.34375l0 0.953125q-0.625 0.3125 -1.453125 0.3125q-1.0 0 -1.5625 -0.609375q-0.546875 -0.609375 -0.546875 -1.703125l0 -6.234375l-1.75 0l0 -0.921875l1.75 0l0 -1.7031245l1.03125 -0.5625l0 2.2656245l2.53125 0l0 0.921875zm2.4615936 -2.9062495q-0.375 0 -0.640625 -0.265625q-0.265625 -0.265625 -0.265625 -0.625q0 -0.375 0.265625 -0.625q0.265625 -0.265625 0.640625 -0.265625q0.375 0 0.640625 0.265625q0.265625 0.25 0.265625 0.625q0 0.375 -0.265625 0.640625q-0.265625 0.25 -0.640625 0.25zm0.5 11.234375l-1.0 0l0 -9.25l1.0 0l0 9.25zm6.318939 0.21875q-1.1875 0 -2.125 -0.578125q-0.921875 -0.59375 -1.453125 -1.625q-0.53125 -1.03125 -0.53125 -2.359375l0 -0.5625q0 -1.328125 0.53125 -2.359375q0.53125 -1.03125 1.453125 -1.625q0.9375 -0.59375 2.125 -0.59375q1.1875 0 2.109375 0.59375q0.9375 0.59375 1.46875 1.625q0.53125 1.03125 0.53125 2.359375l0 0.5625q0 1.328125 -0.53125 2.359375q-0.53125 1.03125 -1.46875 1.625q-0.921875 0.578125 -2.109375 0.578125zm0 -0.96875q1.390625 0 2.234375 -0.984375q0.84375 -0.984375 0.84375 -2.59375l0 -0.59375q0 -1.609375 -0.84375 -2.59375q-0.84375 -0.984375 -2.234375 -0.984375q-1.390625 0 -2.234375 0.984375q-0.828125 0.984375 -0.828125 2.59375l0 0.59375q0 1.609375 0.828125 2.59375q0.84375 0.984375 2.234375 0.984375zm6.3187866 0.75l0 -9.25l1.0 0l0 1.15625q0.3125 -0.59375 0.984375 -0.984375q0.671875 -0.40625 1.578125 -0.40625q1.4375 0 2.265625 0.90625q0.84375 0.90625 0.84375 2.40625l0 6.171875l-1.0 0l0 -6.0q0 -1.1875 -0.640625 -1.859375q-0.640625 -0.6875 -1.6875 -0.6875q-1.0625 0 -1.703125 0.703125q-0.640625 0.703125 -0.640625 1.859375l0 5.984375l-1.0 0z" fill-rule="nonzero"/></g></svg>