<?xml version="1.0" encoding="utf-8"?>
<!-- Generator: Adobe Illustrator 27.8.1, SVG Export Plug-In . SVG Version: 6.00 Build 0)  -->
<svg version="1.1" id="icons" xmlns="http://www.w3.org/2000/svg" xmlns:xlink="http://www.w3.org/1999/xlink" x="0px" y="0px"
	 viewBox="0 0 192 192" style="enable-background:new 0 0 192 192;" xml:space="preserve">
<style type="text/css">
	.st0{fill:none;stroke:#0B41CD;stroke-width:8;stroke-linecap:round;stroke-linejoin:round;stroke-miterlimit:10;}
	.st1{fill:none;stroke:#1482FA;stroke-width:8;stroke-linecap:round;stroke-linejoin:round;stroke-miterlimit:10;}
</style>
<g>
	<path class="st0" d="M106,24v22c0,5.5-4.5,10-10,10H76c-5.5,0-10-4.5-10-10V24"/>
	<path class="st0" d="M89.8,148h-53c-7.1,0-12.8-5.7-12.8-12.8V36.8C24,29.7,29.7,24,36.8,24h98.3c7.1,0,12.8,5.7,12.8,12.8v37"/>
	<polyline class="st1" points="149,153 149,180 136,172 123,180 123,153.2 	"/>
	<circle class="st1" cx="136" cy="123" r="32"/>
	<path class="st1" d="M137.4,107.3l3.9,7.4c0.2,0.4,0.6,0.7,1.1,0.8l8.2,1.4c1.3,0.2,1.8,1.8,0.9,2.7l-5.8,6
		c-0.3,0.4-0.5,0.8-0.4,1.3l1.2,8.2c0.2,1.3-1.1,2.2-2.3,1.7l-7.5-3.7c-0.4-0.2-1-0.2-1.4,0l-7.5,3.7c-1.2,0.6-2.5-0.4-2.3-1.7
		l1.2-8.2c0.1-0.5-0.1-1-0.4-1.3l-5.8-6c-0.9-0.9-0.4-2.5,0.9-2.7l8.2-1.4c0.5-0.1,0.9-0.4,1.1-0.8l3.9-7.4
		C135.2,106.1,136.8,106.1,137.4,107.3z"/>
	<line class="st0" x1="44" y1="112" x2="80" y2="112"/>
	<line class="st0" x1="44" y1="128" x2="64" y2="128"/>
</g>
</svg>
