<svg id="Layer_1" version="1.1" viewBox="0 0 52 52" xml:space="preserve" xmlns="http://www.w3.org/2000/svg" enable-background="new 0 0 52 52"><path d="M40.113 13.3c-.46-.5-.93-.97-1.42-1.41-3.37-3.03-7.82-4.88-12.69-4.88-4.88 0-9.33 1.85-12.7 4.88-.49.44-.96.91-1.42 1.41-3.02 3.37-4.87 7.83-4.87 12.7s1.85 9.33 4.87 12.7c.46.5.93.97 1.42 1.41 3.37 3.03 7.82 4.88 12.7 4.88 4.87 0 9.32-1.85 12.69-4.88.49-.44.96-.91 1.42-1.41 3.02-3.37 4.87-7.83 4.87-12.7s-1.85-9.33-4.87-12.7zm-14.11 29.69c-9.37 0-16.99-7.62-16.99-16.99s7.62-16.99 16.99-16.99c9.36 0 16.98 7.62 16.98 16.99s-7.62 16.99-16.98 16.99z" fill="#0b41cd" class="fill-0195e3"></path><path d="M26.003 9.01c-9.37 0-16.99 7.62-16.99 16.99s7.62 16.99 16.99 16.99c9.36 0 16.98-7.62 16.98-16.99s-7.62-16.99-16.98-16.99zm8.99 24.22c-.46.55-1.14.87-1.85.87h-14.29c-.71 0-1.39-.32-1.85-.87a2.3 2.3 0 0 1-.5-1.91 9.617 9.617 0 0 1 6.03-7.23 5.12 5.12 0 0 1-1.69-3.81 5.155 5.155 0 0 1 10.31 0c0 1.51-.65 2.88-1.69 3.81a9.6 9.6 0 0 1 6.03 7.23c.13.67-.05 1.37-.5 1.91z" fill="#bde3ff" class="fill-d0e8f9"></path><path d="M26.003 15.13c-2.85 0-5.16 2.31-5.16 5.15 0 1.51.65 2.87 1.69 3.81.92.84 2.13 1.35 3.47 1.35 1.33 0 2.55-.51 3.46-1.35 1.04-.93 1.69-2.3 1.69-3.81 0-2.84-2.31-5.15-5.15-5.15zm-3.16 5.15c0-1.73 1.42-3.15 3.16-3.15 1.73 0 3.15 1.42 3.15 3.15 0 1.74-1.42 3.16-3.15 3.16-1.74 0-3.16-1.42-3.16-3.16z" fill="#0b41cd" class="fill-0195e3"></path><path d="M35.493 31.32a9.6 9.6 0 0 0-6.03-7.23 9.553 9.553 0 0 0-6.93 0 9.617 9.617 0 0 0-6.03 7.23 2.3 2.3 0 0 0 .5 1.91c.46.55 1.14.87 1.85.87h14.29c.71 0 1.39-.32 1.85-.87.45-.54.63-1.24.5-1.91zm-2.04.63c-.03.04-.14.15-.31.15h-14.29c-.17 0-.27-.11-.31-.15a.327.327 0 0 1-.08-.27 7.657 7.657 0 0 1 7.54-6.24c3.69 0 6.85 2.62 7.53 6.24.02.12-.03.21-.08.27zM38.719 14.28a1 1 0 0 1-.707-1.707l4.504-4.505a1 1 0 1 1 1.414 1.414l-4.504 4.504a.997.997 0 0 1-.707.293zM8.774 44.225a1 1 0 0 1-.707-1.707l4.504-4.505a1 1 0 1 1 1.414 1.414l-4.504 4.505a.997.997 0 0 1-.707.293z" fill="#0b41cd" class="fill-0195e3"></path><path d="M45.616 10.767a4.354 4.354 0 0 1-3.1-1.285c-.828-.828-1.284-1.928-1.284-3.1s.456-2.27 1.284-3.099A4.358 4.358 0 0 1 45.616 2c1.17 0 2.27.456 3.099 1.283a4.39 4.39 0 0 1 0 6.2 4.353 4.353 0 0 1-3.1 1.284zm0-6.767c-.637 0-1.236.248-1.686.697-.45.45-.698 1.05-.698 1.686s.248 1.235.698 1.685c.9.9 2.47.9 3.37 0a2.388 2.388 0 0 0 0-3.37A2.371 2.371 0 0 0 45.617 4zM6.382 50a4.354 4.354 0 0 1-3.1-1.284 4.388 4.388 0 0 1 0-6.198 4.354 4.354 0 0 1 3.1-1.285c1.17 0 2.272.456 3.1 1.285a4.388 4.388 0 0 1 0 6.198A4.353 4.353 0 0 1 6.381 50zm0-6.767a2.386 2.386 0 0 0-1.686 4.068c.9.901 2.47.901 3.371 0a2.386 2.386 0 0 0-1.685-4.068zM43.223 44.225a.997.997 0 0 1-.707-.293l-4.504-4.505a1 1 0 1 1 1.414-1.414l4.504 4.505a1 1 0 0 1-.707 1.707zM13.278 14.28a.997.997 0 0 1-.707-.294L8.067 9.482A1 1 0 1 1 9.48 8.068l4.504 4.504a1 1 0 0 1-.707 1.707z" fill="#0b41cd" class="fill-0195e3"></path><path d="M45.616 50a4.354 4.354 0 0 1-3.1-1.284c-.828-.828-1.284-1.929-1.284-3.1s.456-2.271 1.284-3.098a4.354 4.354 0 0 1 3.1-1.285c1.17 0 2.271.456 3.099 1.285.828.827 1.284 1.927 1.284 3.098s-.456 2.272-1.284 3.1a4.353 4.353 0 0 1-3.1 1.284zm0-6.767c-.637 0-1.236.248-1.686.699s-.698 1.047-.698 1.684.248 1.236.698 1.686c.9.9 2.47.9 3.37 0 .451-.45.699-1.05.699-1.686s-.248-1.234-.698-1.684-1.049-.699-1.685-.699zM6.382 10.767a4.353 4.353 0 0 1-3.1-1.285 4.388 4.388 0 0 1 0-6.198A4.353 4.353 0 0 1 6.383 2c1.17 0 2.271.456 3.099 1.284a4.388 4.388 0 0 1 0 6.198 4.353 4.353 0 0 1-3.1 1.285zm0-6.767c-.636 0-1.235.248-1.685.698a2.386 2.386 0 0 0 0 3.37c.9.9 2.47.9 3.37 0A2.386 2.386 0 0 0 6.382 4z" fill="#0b41cd" class="fill-0195e3"></path></svg>