<svg id="Layer_1" data-name="Layer 1" xmlns="http://www.w3.org/2000/svg" viewBox="0 0 192 192"><defs><style>.cls-1,.cls-2,.cls-3{fill:none;}.cls-1{stroke:#1482fa;}.cls-1,.cls-2{stroke-linecap:round;stroke-linejoin:round;stroke-width:8px;}.cls-2{stroke:#0b41cd;}</style></defs><line class="cls-1" x1="12.89" y1="124.75" x2="179.11" y2="124.75"/><rect class="cls-2" x="12" y="22.94" width="168" height="120" rx="12"/><line class="cls-2" x1="80.61" y1="165.2" x2="80.61" y2="143.94"/><line class="cls-2" x1="111.39" y1="143.94" x2="111.39" y2="165.2"/><path class="cls-2" d="M47.82,169.06a.55.55,0,1,1,0-1.1h96.36a.55.55,0,1,1,0,1.1Z"/><path class="cls-2" d="M47.82,169.06a.55.55,0,1,1,0-1.1h96.36a.55.55,0,1,1,0,1.1Z"/><path class="cls-2" d="M47.82,169.06a.55.55,0,1,1,0-1.1h96.36a.55.55,0,1,1,0,1.1Z"/><path class="cls-2" d="M47.82,169.06a.55.55,0,1,1,0-1.1h96.36a.55.55,0,1,1,0,1.1Z"/><path class="cls-2" d="M47.82,169.06a.55.55,0,1,1,0-1.1h96.36a.55.55,0,1,1,0,1.1Z"/><path class="cls-2" d="M47.82,169.06a.55.55,0,1,1,0-1.1h96.36a.55.55,0,1,1,0,1.1Z"/><rect class="cls-3" width="192" height="192"/></svg>