<svg id="Layer_1" version="1.1" viewBox="0 0 52 52" xml:space="preserve" xmlns="http://www.w3.org/2000/svg" enable-background="new 0 0 52 52"><path d="M37.95 2H6v48h40V9.87L37.95 2zM44 48H8V4h29.13l.98.96 5.01 4.89.88.86V48z" fill="#0b41cd" class="fill-0096e6"></path><path d="M36.11 11.85V4H8v44h36V11.85h-7.89zm-9.04 23.99H12.16v-2h14.91v2zm4.45-3.93H12.3v-2h19.22v2zm3.44-4.49H12.3v-2h22.66v2zm1.29-4.91H12.3v-2h23.95v2zm1.72-4.49H12.45v-2h25.52v2z" fill="#ffffff" class="fill-ffffff"></path><path d="M43.12 9.85h-5.01V4.96z" fill="#d0e8f9" class="fill-d0e8f9"></path><path d="M45 9.85v2h-8.89V3.42h2v6.43zM12.45 16.02h25.52v2H12.45zM12.3 20.51h23.95v2H12.3zM12.3 25.42h22.66v2H12.3zM12.3 29.91h19.22v2H12.3zM12.16 33.84h14.91v2H12.16z" fill="#0b41cd" class="fill-0096e6"></path></svg>