<svg id="Layer_1" data-name="Layer 1" xmlns="http://www.w3.org/2000/svg" viewBox="0 0 192 192"><defs><style>.cls-1,.cls-2,.cls-3,.cls-4{fill:none;}.cls-1{stroke:#1482fa;}.cls-1,.cls-3{stroke-linecap:round;stroke-linejoin:round;}.cls-1,.cls-2,.cls-3{stroke-width:8px;}.cls-2{stroke:#00925b;stroke-miterlimit:10;}.cls-3{stroke:#0b41cd;}</style></defs><line class="cls-1" x1="85.86" y1="109.56" x2="90.32" y2="142.38"/><path class="cls-1" d="M85.86,109.56H81.39a3.82,3.82,0,0,1-3.82-3.83v-.6a3.82,3.82,0,0,1,3.79-3.86H82a3.86,3.86,0,0,1,3.86,3.86Z"/><line class="cls-1" x1="106.17" y1="109.56" x2="101.68" y2="142.38"/><path class="cls-1" d="M106.17,109.56h4.44a3.82,3.82,0,0,0,3.85-3.8v-.63a3.85,3.85,0,0,0-3.85-3.86h-.46a3.83,3.83,0,0,0-3.83,3.83v0Z"/><line class="cls-1" x1="85.86" y1="109.56" x2="106.17" y2="109.56"/><line class="cls-1" x1="169.3" y1="86.16" x2="151.12" y2="86.16"/><line class="cls-2" x1="40.88" y1="86.07" x2="22.7" y2="86.07"/><line class="cls-1" x1="32.56" y1="49.39" x2="48.3" y2="58.5"/><line class="cls-1" x1="143.7" y1="113.73" x2="159.47" y2="122.83"/><line class="cls-1" x1="59.39" y1="22.58" x2="68.49" y2="38.33"/><line class="cls-1" x1="22.7" y1="86.16" x2="40.88" y2="86.16"/><line class="cls-1" x1="151.12" y1="86.07" x2="169.3" y2="86.07"/><line class="cls-1" x1="159.47" y1="49.39" x2="143.7" y2="58.5"/><line class="cls-1" x1="48.3" y1="113.73" x2="32.56" y2="122.83"/><line class="cls-1" x1="132.61" y1="22.58" x2="123.51" y2="38.33"/><line class="cls-1" x1="96.05" y1="12.78" x2="96.05" y2="30.97"/><path class="cls-3" d="M137.49,85.56A41.48,41.48,0,1,0,64.63,112.7a27.17,27.17,0,0,1,6.58,17.89v3.28a8.57,8.57,0,0,0,8.53,8.57h32.52a8.59,8.59,0,0,0,8.56-8.57v-3.34a27.17,27.17,0,0,1,6.58-17.89,41.36,41.36,0,0,0,10.09-27.08Z"/><path class="cls-3" d="M109.84,168.16H82.17c-2.55,0-4.62-2.76-4.62-6.16h0c0-3.38,2-6.14,4.55-6.17h27.74c2.55,0,4.61,2.76,4.61,6.17h0c0,3.39-2.07,6.14-4.61,6.16Z"/><path class="cls-3" d="M112.94,142.44c2.35,0,4.25,2.76,4.25,6.17v.53c0,3.7-2.06,6.69-4.61,6.69H79.42c-2.54,0-4.61-3-4.61-6.69v-.49c0-3.4,1.87-6.19,4.22-6.21h.06"/><path class="cls-3" d="M108.93,170.13a13.74,13.74,0,0,1-25.86,0"/><rect class="cls-4" width="192" height="192"/></svg>