<svg version="1.1" viewBox="0.0 0.0 100.0 100.0" fill="none" stroke="none" stroke-linecap="square" stroke-miterlimit="10" xmlns:xlink="http://www.w3.org/1999/xlink" xmlns="http://www.w3.org/2000/svg"><clipPath id="p.0"><path d="m0 0l100.0 0l0 100.0l-100.0 0l0 -100.0z" clip-rule="nonzero"/></clipPath><g clip-path="url(#p.0)"><path fill="#000000" fill-opacity="0.0" d="m0 0l100.0 0l0 100.0l-100.0 0z" fill-rule="evenodd"/><path fill="#000000" fill-opacity="0.0" d="m3.6272967 -14.645669l100.0 0l0 129.29134l-100.0 0z" fill-rule="evenodd"/><path fill="#706b69" d="m30.127296 28.628698q-2.359375 0 -4.125 -1.71875q-1.765625 -1.71875 -1.765625 -4.171875q0 -2.453125 1.765625 -4.171875q1.765625 -1.71875 4.125 -1.71875q2.4375 0 4.15625 1.71875q1.734375 1.71875 1.734375 4.171875q0 2.453125 -1.734375 4.171875q-1.71875 1.71875 -4.15625 1.71875zm-6.171875 52.765625l-8.25 0l7.984375 -44.96875l8.25 0l-7.984375 44.96875z" fill-rule="nonzero"/><path fill="#0b41cd" d="m42.628777 81.394325l0 -63.453125l17.328125 0q8.328125 0 14.71875 3.625q6.390625 3.625 9.875 10.296875q3.5 6.656252 3.5 15.531252l0 4.53125q0 8.890625 -3.5 15.5625q-3.484375 6.65625 -9.875 10.28125q-6.390625 3.625 -14.71875 3.625l-17.328125 0zm17.046875 -8.34375q8.890625 0 14.0 -5.609375q5.125 -5.625 5.125 -15.515625l0 -4.53125q0 -9.875 -5.125 -15.500002q-5.109375 -5.625 -14.0 -5.625l-7.96875 0l0 46.78125l7.96875 0z" fill-rule="nonzero"/></g></svg>